<svg width="148" height="55" viewBox="0 0 148 55" fill="none" xmlns="http://www.w3.org/2000/svg">
<circle cx="27.4639" cy="27.4639" r="27.4639" fill="#673AB6"/>
<path d="M73.5571 28.7285L70.4282 31.9805V40.6289H67.0532V15.0352H70.4282V27.6914L81.8012 15.0352H85.8793L75.8071 26.3379L86.6703 40.6289H82.6274L73.5571 28.7285ZM103.756 33.9492H93.0336L90.6254 40.6289H87.145L96.9184 15.0352H99.8715L109.663 40.6289H106.2L103.756 33.9492ZM94.0532 31.1719H102.754L98.395 19.2012L94.0532 31.1719ZM132.778 40.6289H129.385L116.5 20.9062V40.6289H113.108V15.0352H116.5L129.42 34.8457V15.0352H132.778V40.6289Z" fill="#673AB6"/>
<path d="M33.567 29.3712H148" stroke="#673AB6"/>
</svg>
