<svg width="383" height="144" viewBox="0 0 383 144" fill="none" xmlns="http://www.w3.org/2000/svg">
<circle cx="72" cy="72" r="72" fill="white"/>
<path d="M197.266 73.2656L188.922 81.9375V105H179.922V36.75H188.922V70.5L219.25 36.75H230.125L203.266 66.8906L232.234 105H221.453L197.266 73.2656ZM277.797 87.1875H249.203L242.781 105H233.5L259.562 36.75H267.438L293.547 105H284.312L277.797 87.1875ZM251.922 79.7812H275.125L263.5 47.8594L251.922 79.7812ZM355.188 105H346.141L311.781 52.4062V105H302.734V36.75H311.781L346.234 89.5781V36.75H355.188V105Z" fill="white"/>
<path d="M74 74.5H382.5" stroke="white" stroke-width="3"/>
</svg>
